<?xml version="1.0" encoding="utf-8"?>
<!-- Generator: Adobe Illustrator 15.0.0, SVG Export Plug-In . SVG Version: 6.00 Build 0)  -->
<!DOCTYPE svg PUBLIC "-//W3C//DTD SVG 1.1//EN" "http://www.w3.org/Graphics/SVG/1.1/DTD/svg11.dtd">
<svg version="1.1" id="Layer_1" xmlns="http://www.w3.org/2000/svg" xmlns:xlink="http://www.w3.org/1999/xlink" x="0px" y="0px"
	 width="212px" height="55px" viewBox="5.05 -34.943 212 55" enable-background="new 5.05 -34.943 212 55" xml:space="preserve">
<g>
	<path fill="#FFFFFF" d="M15.333-18.101V10.27c0,5.545,2.736,5.76,4.968,5.76c1.44,0,2.736-0.072,3.168-0.215v1.439
		c-0.864,0.072-1.296,0.217-3.528,0.217c-3.384,0-6.049-1.656-6.049-6.914v-28.659h-6.84v-1.44h6.84v-11.665h1.44v11.665h8.353v1.44
		H15.333z"/>
	<path fill="#FFFFFF" d="M28.724-33.942h1.44v23.546h0.144c1.368-5.688,6.048-10.009,13.321-10.009
		c7.705,0,13.177,4.752,13.177,13.321v24.555h-1.44V-6.867c0-8.569-5.472-12.097-11.737-12.097c-8.857,0-13.465,7.272-13.465,15.481
		v20.955h-1.44V-33.942z"/>
	<path fill="#FFFFFF" d="M94.535,4.87c-0.792,8.282-6.769,13.465-15.122,13.465c-10.513,0-16.417-8.497-16.417-18.578
		c0-10.729,5.4-20.162,17.281-20.162c6.913,0,13.033,4.249,13.969,12.097h-1.44c-1.152-7.201-6.409-10.657-12.529-10.657
		c-11.809,0-15.841,10.009-15.841,18.722c0,9.073,5.185,17.138,14.977,17.138c7.273,0,13.105-4.61,13.681-12.026H94.535z"/>
	<path fill="#FFFFFF" d="M101.156-30.053v-1.44h31.251v1.944c-13.321,13.321-22.106,27.506-22.106,47.021h-1.44
		c-0.216-19.227,8.713-34.348,21.962-47.525H101.156z"/>
	<path fill="#FFFFFF" d="M171.718-19.973c-1.944-8.856-8.784-10.945-13.753-10.945c-14.617,0-17.21,16.489-16.993,27.722h0.144
		c1.44-6.913,8.137-12.313,15.985-12.313c8.497,0,16.922,6.841,16.922,16.921c0,9.792-7.921,16.922-16.922,16.922
		c-6.696,0-11.809-3.889-14.257-7.705c-2.809-4.32-3.24-10.009-3.24-16.273c0-12.169,4.104-26.714,18.434-26.714
		c8.496,0,14.113,5.472,15.121,12.385H171.718z M157.101-14.068c-8.568,0-15.481,6.913-15.481,15.481
		c0,8.569,6.913,15.482,15.481,15.482s15.481-6.914,15.481-15.482C172.582-7.155,165.669-14.068,157.101-14.068z"/>
	<path fill="#FFFFFF" d="M202.102-9.388c7.704,0.72,12.529,5.688,12.529,13.177c0,10.153-8.209,14.545-17.786,14.545
		S179.06,13.942,179.06,3.79c0-7.489,4.824-12.457,12.529-13.177v-0.144c-5.617-0.72-10.081-4.824-10.081-10.441
		c0-8.785,6.84-12.385,15.337-12.385s15.338,3.6,15.338,12.385c0,5.617-4.465,9.721-10.081,10.441V-9.388z M196.845-8.596
		c-8.497,0-16.346,2.953-16.346,12.385c0,9.432,7.777,13.106,16.346,13.106c8.569,0,16.346-3.674,16.346-13.106
		C213.19-5.643,205.342-8.596,196.845-8.596z M196.845-30.917c-7.057,0-13.897,2.592-13.897,10.945
		c0,6.985,7.417,9.937,13.897,9.937s13.897-2.952,13.897-9.937C210.742-28.325,203.901-30.917,196.845-30.917z"/>
</g>
</svg>
