<?xml version="1.0" encoding="utf-8"?>
<!-- Generator: Adobe Illustrator 15.0.0, SVG Export Plug-In . SVG Version: 6.00 Build 0)  -->
<!DOCTYPE svg PUBLIC "-//W3C//DTD SVG 1.1//EN" "http://www.w3.org/Graphics/SVG/1.1/DTD/svg11.dtd">
<svg version="1.1" id="Layer_1" xmlns="http://www.w3.org/2000/svg" xmlns:xlink="http://www.w3.org/1999/xlink" x="0px" y="0px"
	 width="42px" height="42px" viewBox="0 0 42 42" enable-background="new 0 0 42 42" xml:space="preserve">
<path fill-rule="evenodd" clip-rule="evenodd" fill="#FFFFFF" d="M21,1C9.956,1,1,10.181,1,21.507c0,9.06,5.73,16.746,13.677,19.457
	c1,0.19,1.366-0.444,1.366-0.986c0-0.488-0.018-2.104-0.026-3.817c-5.564,1.24-6.738-2.42-6.738-2.42c-0.91-2.369-2.22-3-2.22-3
	c-1.815-1.273,0.136-1.246,0.136-1.246c2.009,0.144,3.066,2.113,3.066,2.113c1.785,3.134,4.679,2.228,5.82,1.704
	c0.18-1.325,0.698-2.23,1.27-2.742c-4.441-0.519-9.111-2.276-9.111-10.135c0-2.238,0.781-4.067,2.061-5.504
	c-0.208-0.517-0.892-2.602,0.194-5.427c0,0,1.679-0.551,5.501,2.103c1.596-0.454,3.307-0.683,5.006-0.69
	c1.699,0.008,3.412,0.236,5.01,0.69c3.818-2.653,5.495-2.103,5.495-2.103c1.089,2.825,0.403,4.91,0.196,5.427
	c1.282,1.437,2.059,3.266,2.059,5.504c0,7.877-4.68,9.61-9.133,10.118c0.717,0.637,1.356,1.885,1.356,3.798
	c0,2.743-0.022,4.952-0.022,5.627c0,0.547,0.359,1.186,1.373,0.984C35.275,38.247,41,30.563,41,21.507C41,10.181,32.045,1,21,1"/>
</svg>
